<mxfile host="app.diagrams.net" agent="Mozilla/5.0 (Windows NT 10.0; Win64; x64) AppleWebKit/537.36 (KHTML, like Gecko) Chrome/131.0.0.0 Safari/537.36" version="24.8.4">
  <diagram id="kgpKYQtTHZ0yAKxKKP6v" name="Page-1">
    <mxGraphModel dx="2013" dy="627" grid="1" gridSize="10" guides="1" tooltips="1" connect="1" arrows="1" fold="1" page="1" pageScale="1" pageWidth="850" pageHeight="1100" background="#ffffff" math="0" shadow="0">
      <root>
        <mxCell id="0" />
        <mxCell id="1" parent="0" />
        <mxCell id="sbPEuqRtvOU7aVTsuF3H-1" value="Login Page" style="swimlane;whiteSpace=wrap;html=1;" vertex="1" parent="1">
          <mxGeometry x="190" y="10" width="490" height="300" as="geometry" />
        </mxCell>
        <mxCell id="sbPEuqRtvOU7aVTsuF3H-4" value="" style="edgeStyle=orthogonalEdgeStyle;rounded=0;orthogonalLoop=1;jettySize=auto;html=1;" edge="1" parent="sbPEuqRtvOU7aVTsuF3H-1" source="sbPEuqRtvOU7aVTsuF3H-2" target="sbPEuqRtvOU7aVTsuF3H-3">
          <mxGeometry relative="1" as="geometry" />
        </mxCell>
        <mxCell id="sbPEuqRtvOU7aVTsuF3H-2" value="User Login" style="ellipse;whiteSpace=wrap;html=1;" vertex="1" parent="sbPEuqRtvOU7aVTsuF3H-1">
          <mxGeometry x="172.48" y="40" width="70" height="40" as="geometry" />
        </mxCell>
        <mxCell id="sbPEuqRtvOU7aVTsuF3H-6" value="" style="edgeStyle=orthogonalEdgeStyle;rounded=0;orthogonalLoop=1;jettySize=auto;html=1;" edge="1" parent="sbPEuqRtvOU7aVTsuF3H-1" source="sbPEuqRtvOU7aVTsuF3H-3" target="sbPEuqRtvOU7aVTsuF3H-5">
          <mxGeometry relative="1" as="geometry" />
        </mxCell>
        <mxCell id="sbPEuqRtvOU7aVTsuF3H-8" value="No" style="edgeLabel;html=1;align=center;verticalAlign=middle;resizable=0;points=[];" vertex="1" connectable="0" parent="sbPEuqRtvOU7aVTsuF3H-6">
          <mxGeometry x="-0.4441" y="2" relative="1" as="geometry">
            <mxPoint as="offset" />
          </mxGeometry>
        </mxCell>
        <mxCell id="sbPEuqRtvOU7aVTsuF3H-35" style="edgeStyle=orthogonalEdgeStyle;rounded=0;orthogonalLoop=1;jettySize=auto;html=1;exitX=0;exitY=0.5;exitDx=0;exitDy=0;entryX=0.5;entryY=0;entryDx=0;entryDy=0;" edge="1" parent="sbPEuqRtvOU7aVTsuF3H-1" source="sbPEuqRtvOU7aVTsuF3H-3" target="sbPEuqRtvOU7aVTsuF3H-34">
          <mxGeometry relative="1" as="geometry" />
        </mxCell>
        <mxCell id="sbPEuqRtvOU7aVTsuF3H-38" value="Yes" style="edgeLabel;html=1;align=center;verticalAlign=middle;resizable=0;points=[];" vertex="1" connectable="0" parent="sbPEuqRtvOU7aVTsuF3H-35">
          <mxGeometry x="-0.7906" y="-2" relative="1" as="geometry">
            <mxPoint as="offset" />
          </mxGeometry>
        </mxCell>
        <mxCell id="sbPEuqRtvOU7aVTsuF3H-3" value="Already logged in?" style="rhombus;whiteSpace=wrap;html=1;" vertex="1" parent="sbPEuqRtvOU7aVTsuF3H-1">
          <mxGeometry x="167.48" y="100" width="80" height="80" as="geometry" />
        </mxCell>
        <mxCell id="sbPEuqRtvOU7aVTsuF3H-15" style="edgeStyle=orthogonalEdgeStyle;rounded=0;orthogonalLoop=1;jettySize=auto;html=1;exitX=1;exitY=0.5;exitDx=0;exitDy=0;entryX=1;entryY=0.5;entryDx=0;entryDy=0;" edge="1" parent="sbPEuqRtvOU7aVTsuF3H-1" source="sbPEuqRtvOU7aVTsuF3H-5" target="sbPEuqRtvOU7aVTsuF3H-12">
          <mxGeometry relative="1" as="geometry" />
        </mxCell>
        <mxCell id="sbPEuqRtvOU7aVTsuF3H-5" value="Enter Username and Password" style="whiteSpace=wrap;html=1;" vertex="1" parent="sbPEuqRtvOU7aVTsuF3H-1">
          <mxGeometry x="307.48" y="110" width="120" height="60" as="geometry" />
        </mxCell>
        <mxCell id="sbPEuqRtvOU7aVTsuF3H-36" style="edgeStyle=orthogonalEdgeStyle;rounded=0;orthogonalLoop=1;jettySize=auto;html=1;exitX=0;exitY=0.5;exitDx=0;exitDy=0;entryX=1;entryY=0.5;entryDx=0;entryDy=0;" edge="1" parent="sbPEuqRtvOU7aVTsuF3H-1" source="sbPEuqRtvOU7aVTsuF3H-12" target="sbPEuqRtvOU7aVTsuF3H-34">
          <mxGeometry relative="1" as="geometry" />
        </mxCell>
        <mxCell id="sbPEuqRtvOU7aVTsuF3H-41" value="Yes" style="edgeLabel;html=1;align=center;verticalAlign=middle;resizable=0;points=[];" vertex="1" connectable="0" parent="sbPEuqRtvOU7aVTsuF3H-36">
          <mxGeometry x="-0.5224" y="1" relative="1" as="geometry">
            <mxPoint as="offset" />
          </mxGeometry>
        </mxCell>
        <mxCell id="sbPEuqRtvOU7aVTsuF3H-39" style="edgeStyle=orthogonalEdgeStyle;rounded=0;orthogonalLoop=1;jettySize=auto;html=1;exitX=0.5;exitY=0;exitDx=0;exitDy=0;entryX=0.5;entryY=1;entryDx=0;entryDy=0;" edge="1" parent="sbPEuqRtvOU7aVTsuF3H-1" source="sbPEuqRtvOU7aVTsuF3H-12" target="sbPEuqRtvOU7aVTsuF3H-5">
          <mxGeometry relative="1" as="geometry">
            <Array as="points">
              <mxPoint x="288" y="190" />
              <mxPoint x="368" y="190" />
            </Array>
          </mxGeometry>
        </mxCell>
        <mxCell id="sbPEuqRtvOU7aVTsuF3H-40" value="No" style="edgeLabel;html=1;align=center;verticalAlign=middle;resizable=0;points=[];" vertex="1" connectable="0" parent="sbPEuqRtvOU7aVTsuF3H-39">
          <mxGeometry x="-0.567" relative="1" as="geometry">
            <mxPoint as="offset" />
          </mxGeometry>
        </mxCell>
        <mxCell id="sbPEuqRtvOU7aVTsuF3H-12" value="Authenticated?" style="rhombus;whiteSpace=wrap;html=1;" vertex="1" parent="sbPEuqRtvOU7aVTsuF3H-1">
          <mxGeometry x="235" y="200" width="105" height="80" as="geometry" />
        </mxCell>
        <mxCell id="sbPEuqRtvOU7aVTsuF3H-34" value="Log User Session" style="rounded=0;whiteSpace=wrap;html=1;" vertex="1" parent="sbPEuqRtvOU7aVTsuF3H-1">
          <mxGeometry x="40" y="210" width="80" height="60" as="geometry" />
        </mxCell>
        <mxCell id="sbPEuqRtvOU7aVTsuF3H-19" value="Dashboard" style="swimlane;whiteSpace=wrap;html=1;" vertex="1" parent="1">
          <mxGeometry x="190" y="350" width="490" height="230" as="geometry" />
        </mxCell>
        <mxCell id="sbPEuqRtvOU7aVTsuF3H-44" value="" style="edgeStyle=orthogonalEdgeStyle;rounded=0;orthogonalLoop=1;jettySize=auto;html=1;" edge="1" parent="sbPEuqRtvOU7aVTsuF3H-19" source="sbPEuqRtvOU7aVTsuF3H-20" target="sbPEuqRtvOU7aVTsuF3H-43">
          <mxGeometry relative="1" as="geometry" />
        </mxCell>
        <mxCell id="sbPEuqRtvOU7aVTsuF3H-20" value="Display Dashboard" style="ellipse;whiteSpace=wrap;html=1;" vertex="1" parent="sbPEuqRtvOU7aVTsuF3H-19">
          <mxGeometry x="40.239999999999995" y="40" width="77.52" height="60" as="geometry" />
        </mxCell>
        <mxCell id="sbPEuqRtvOU7aVTsuF3H-47" value="" style="edgeStyle=orthogonalEdgeStyle;rounded=0;orthogonalLoop=1;jettySize=auto;html=1;" edge="1" parent="sbPEuqRtvOU7aVTsuF3H-19" source="sbPEuqRtvOU7aVTsuF3H-43" target="sbPEuqRtvOU7aVTsuF3H-46">
          <mxGeometry relative="1" as="geometry" />
        </mxCell>
        <mxCell id="sbPEuqRtvOU7aVTsuF3H-43" value="Display Menus" style="whiteSpace=wrap;html=1;" vertex="1" parent="sbPEuqRtvOU7aVTsuF3H-19">
          <mxGeometry x="176.51999999999998" y="40" width="120" height="60" as="geometry" />
        </mxCell>
        <mxCell id="sbPEuqRtvOU7aVTsuF3H-46" value="Select from Menu" style="rhombus;whiteSpace=wrap;html=1;" vertex="1" parent="sbPEuqRtvOU7aVTsuF3H-19">
          <mxGeometry x="196.51999999999998" y="130" width="80" height="80" as="geometry" />
        </mxCell>
        <mxCell id="sbPEuqRtvOU7aVTsuF3H-42" style="edgeStyle=orthogonalEdgeStyle;rounded=0;orthogonalLoop=1;jettySize=auto;html=1;exitX=0.5;exitY=1;exitDx=0;exitDy=0;entryX=0.5;entryY=0;entryDx=0;entryDy=0;" edge="1" parent="1" source="sbPEuqRtvOU7aVTsuF3H-34" target="sbPEuqRtvOU7aVTsuF3H-20">
          <mxGeometry relative="1" as="geometry" />
        </mxCell>
        <mxCell id="sbPEuqRtvOU7aVTsuF3H-48" value="Inventory" style="swimlane;whiteSpace=wrap;html=1;" vertex="1" parent="1">
          <mxGeometry x="-780" y="640" width="900" height="460" as="geometry" />
        </mxCell>
        <mxCell id="sbPEuqRtvOU7aVTsuF3H-57" value="" style="edgeStyle=orthogonalEdgeStyle;rounded=0;orthogonalLoop=1;jettySize=auto;html=1;" edge="1" parent="sbPEuqRtvOU7aVTsuF3H-48" source="sbPEuqRtvOU7aVTsuF3H-55" target="sbPEuqRtvOU7aVTsuF3H-56">
          <mxGeometry relative="1" as="geometry" />
        </mxCell>
        <mxCell id="sbPEuqRtvOU7aVTsuF3H-59" value="No" style="edgeLabel;html=1;align=center;verticalAlign=middle;resizable=0;points=[];" vertex="1" connectable="0" parent="sbPEuqRtvOU7aVTsuF3H-57">
          <mxGeometry x="-0.1859" y="-1" relative="1" as="geometry">
            <mxPoint as="offset" />
          </mxGeometry>
        </mxCell>
        <mxCell id="sbPEuqRtvOU7aVTsuF3H-61" value="" style="edgeStyle=orthogonalEdgeStyle;rounded=0;orthogonalLoop=1;jettySize=auto;html=1;" edge="1" parent="sbPEuqRtvOU7aVTsuF3H-48" source="sbPEuqRtvOU7aVTsuF3H-55" target="sbPEuqRtvOU7aVTsuF3H-60">
          <mxGeometry relative="1" as="geometry" />
        </mxCell>
        <mxCell id="sbPEuqRtvOU7aVTsuF3H-55" value="User has permission?" style="rhombus;whiteSpace=wrap;html=1;" vertex="1" parent="sbPEuqRtvOU7aVTsuF3H-48">
          <mxGeometry x="397.5" y="50" width="105" height="90" as="geometry" />
        </mxCell>
        <mxCell id="sbPEuqRtvOU7aVTsuF3H-56" value="Display Forbidden Page" style="whiteSpace=wrap;html=1;" vertex="1" parent="sbPEuqRtvOU7aVTsuF3H-48">
          <mxGeometry x="220" y="65" width="120" height="60" as="geometry" />
        </mxCell>
        <mxCell id="sbPEuqRtvOU7aVTsuF3H-60" value="Display Inventory Menu" style="ellipse;whiteSpace=wrap;html=1;" vertex="1" parent="sbPEuqRtvOU7aVTsuF3H-48">
          <mxGeometry x="560" y="55" width="80" height="80" as="geometry" />
        </mxCell>
        <mxCell id="sbPEuqRtvOU7aVTsuF3H-62" value="Receiving" style="swimlane;whiteSpace=wrap;html=1;" vertex="1" parent="sbPEuqRtvOU7aVTsuF3H-48">
          <mxGeometry x="30" y="220" width="400" height="200" as="geometry" />
        </mxCell>
        <mxCell id="sbPEuqRtvOU7aVTsuF3H-71" value="Adjustment" style="swimlane;whiteSpace=wrap;html=1;" vertex="1" parent="sbPEuqRtvOU7aVTsuF3H-48">
          <mxGeometry x="470" y="220" width="400" height="200" as="geometry" />
        </mxCell>
        <mxCell id="sbPEuqRtvOU7aVTsuF3H-49" value="Stock Control" style="swimlane;whiteSpace=wrap;html=1;" vertex="1" parent="1">
          <mxGeometry x="810" y="365" width="200" height="200" as="geometry" />
        </mxCell>
        <mxCell id="sbPEuqRtvOU7aVTsuF3H-50" value="Products" style="swimlane;whiteSpace=wrap;html=1;" vertex="1" parent="1">
          <mxGeometry x="780" y="100" width="200" height="200" as="geometry" />
        </mxCell>
        <mxCell id="sbPEuqRtvOU7aVTsuF3H-51" value="Suppliers" style="swimlane;whiteSpace=wrap;html=1;" vertex="1" parent="1">
          <mxGeometry x="990" y="100" width="200" height="200" as="geometry" />
        </mxCell>
        <mxCell id="sbPEuqRtvOU7aVTsuF3H-52" value="Employees" style="swimlane;whiteSpace=wrap;html=1;" vertex="1" parent="1">
          <mxGeometry x="1210" y="100" width="200" height="200" as="geometry" />
        </mxCell>
        <mxCell id="sbPEuqRtvOU7aVTsuF3H-53" value="User Management" style="swimlane;whiteSpace=wrap;html=1;" vertex="1" parent="1">
          <mxGeometry x="1430" y="100" width="200" height="200" as="geometry" />
        </mxCell>
        <mxCell id="sbPEuqRtvOU7aVTsuF3H-54" value="Settings" style="swimlane;whiteSpace=wrap;html=1;" vertex="1" parent="1">
          <mxGeometry x="1650" y="100" width="200" height="200" as="geometry" />
        </mxCell>
        <mxCell id="sbPEuqRtvOU7aVTsuF3H-58" style="edgeStyle=orthogonalEdgeStyle;rounded=0;orthogonalLoop=1;jettySize=auto;html=1;entryX=0;entryY=0.5;entryDx=0;entryDy=0;exitX=0.5;exitY=0;exitDx=0;exitDy=0;" edge="1" parent="1" source="sbPEuqRtvOU7aVTsuF3H-56" target="sbPEuqRtvOU7aVTsuF3H-20">
          <mxGeometry relative="1" as="geometry" />
        </mxCell>
      </root>
    </mxGraphModel>
  </diagram>
</mxfile>
